<svg width="302" height="302" viewBox="0 0 302 302" fill="none" xmlns="http://www.w3.org/2000/svg">
<path fill-rule="evenodd" clip-rule="evenodd" d="M49.2516 0.742021C37.1636 2.82202 25.0836 9.43902 16.3396 18.769C10.1656 25.356 6.52463 31.43 3.04663 40.945L0.404637 48.173L0.100636 105.105C-0.159364 153.871 0.0236368 163.156 1.37664 169.833C4.84464 186.946 13.7166 199.978 28.0766 209.051C37.3076 214.884 47.0956 217.673 58.3306 217.673H67.9046V200.82V183.966L60.2136 183.316C51.0526 182.542 45.0906 179.928 40.8686 174.833C34.9066 167.638 34.8096 166.489 35.1216 106.553C35.4006 53.015 35.4376 52.111 37.5626 48.173C40.0886 43.493 44.0056 39.646 48.9046 37.037C52.2006 35.282 55.6956 35.173 108.931 35.173H165.458L170.422 37.728C176.636 40.925 181.39 47.045 182.813 53.679C184.001 59.221 184.396 153.811 183.265 162.062C182.269 169.33 177.402 176.428 170.928 180.054C165.553 183.065 165.151 183.129 149.178 183.515L132.905 183.908V200.79V217.673H150.695C170.993 217.673 176.252 216.702 187.251 210.922C196.432 206.097 206.319 196.225 211.097 187.111C217.951 174.039 217.905 174.564 217.905 108.989C217.905 43.458 217.981 44.329 211.128 31.265C204.3 18.25 192.024 7.93402 176.905 2.50602L170.405 0.173021L112.405 0.0140205C80.5046 -0.0729795 52.0856 0.254021 49.2516 0.742021ZM127.029 85.251C109.102 90.072 93.6866 104.573 86.6426 123.241C84.4276 129.111 84.4016 129.8 84.1246 189.619C83.9326 231.083 84.1926 251.745 84.9546 255.413C86.8366 264.479 93.4006 276.18 100.788 283.636C107.998 290.913 114.84 295.226 124.905 298.84C131.388 301.167 131.556 301.174 188.971 301.475C237.721 301.73 247.675 301.541 253.971 300.239C275.031 295.882 292.616 279.911 299.187 259.173C301.375 252.267 301.405 251.367 301.405 192.173V132.173L299.072 125.173C294.435 111.26 286.689 100.976 275.096 93.343C264.696 86.494 258.277 84.471 245.155 83.906L233.905 83.421V100.4V117.38L241.415 118.014C254.297 119.103 263.178 125.545 265.941 135.805C266.605 138.272 266.87 159.071 266.688 194.401C266.423 245.612 266.284 249.401 264.541 252.673C261.932 257.572 258.085 261.489 253.405 264.015C249.467 266.14 248.563 266.177 195.025 266.456C132.767 266.78 132.982 266.802 125.457 259.278C118.227 252.048 118.405 253.742 118.405 192.173C118.405 138.368 118.451 137.075 120.508 132.673C123.195 126.924 127.225 122.914 132.905 120.339C136.618 118.656 140.071 118.223 152.655 117.864L167.905 117.43V100.551V83.673L150.155 83.739C138.006 83.784 130.708 84.261 127.029 85.251Z" fill="currentColor"/>
</svg>