<svg width="19" height="19" viewBox="0 0 19 19" fill="none" xmlns="http://www.w3.org/2000/svg">
<path fill-rule="evenodd" clip-rule="evenodd" d="M5.27777 5.93537C0.854624 10.3592 0.562988 10.6711 0.562988 10.9785C0.562988 11.2843 0.795415 11.5386 4.05783 14.8018C7.1065 17.8513 7.58871 18.2976 7.83502 18.2976C8.08256 18.2976 8.69755 17.7173 12.8321 13.5821L17.5469 8.86665V5.19849C17.5469 1.76408 17.536 1.52058 17.3753 1.37514C17.2219 1.23626 16.8215 1.21984 13.5982 1.21984H9.99264L5.27777 5.93537ZM16.3271 5.37237V8.21122L12.0806 12.4569L7.83418 16.7026L4.97318 13.8405L2.11219 10.9784L6.33387 6.75595L10.5556 2.53352H13.4413H16.3271V5.37237ZM12.5268 3.80675C11.8369 4.16482 11.4477 4.77455 11.4477 5.49726C11.4477 6.72742 12.623 7.63423 13.8048 7.31604C14.3272 7.17539 14.9511 6.56368 15.1087 6.03774C15.3554 5.21398 14.9395 4.24026 14.1739 3.84972C13.7215 3.61889 12.9286 3.59825 12.5268 3.80675ZM13.777 5.28313C13.8849 5.50927 13.8813 5.57843 13.752 5.77576C13.4779 6.19417 12.7614 6.00443 12.7614 5.5134C12.7614 4.95772 13.5378 4.78168 13.777 5.28313Z" fill="currentColor"/>
</svg>
